<svg width="466" height="362" viewBox="0 0 466 362" fill="none" xmlns="http://www.w3.org/2000/svg">
<g clip-path="url(#clip0_33515_805)" filter="url(#filter0_d_33515_805)">
<path d="M326.85 37.8787V45.5787H306.05V0.878708H326.85V8.47871H313.65V19.2787H324.15V26.9787H313.65V37.8787H326.85ZM294.05 0.878708H301.65V45.5787H294.05V23.5787L291.05 34.9787H283.65L280.65 23.5787V45.5787H273.05V0.878708H280.65L287.45 22.4787L294.05 0.878708ZM262.15 8.47871H256.65V37.7787H262.15V8.47871ZM265.15 0.878708C267.65 0.878708 269.85 2.97871 269.85 5.57871V40.8787C269.85 43.4787 267.65 45.5787 265.15 45.5787H253.75C251.15 45.5787 249.05 43.3787 249.05 40.8787V5.57871C249.05 2.97871 251.15 0.878708 253.75 0.878708H265.15ZM237.15 29.0787L244.85 27.2787V40.8787C244.85 43.4787 242.65 45.5787 240.15 45.5787H228.75C226.15 45.5787 224.05 43.3787 224.05 40.8787V5.57871C224.05 2.97871 226.15 0.878708 228.75 0.878708H240.15C242.65 0.878708 244.85 2.97871 244.85 5.57871V14.6787L237.15 16.4787V8.47871H231.65V37.7787H237.15V29.0787ZM220.35 37.8787V45.5787H202.15V0.878708H209.75V37.8787H220.35ZM198.95 37.8787V45.5787H178.15V0.878708H198.95V8.47871H185.75V19.2787H196.25V26.9787H185.75V37.8787H198.95ZM166.75 0.878708H174.45L173.15 45.5787H158.65L156.65 27.0787L154.65 45.5787H140.15L139.15 0.878708H146.75L147.35 37.8787H148.15L152.95 0.878708H160.55L165.45 37.8787H166.25L166.75 0.878708Z" fill="#81B3D3"/>
<path d="M156.3 78.5787L153.5 83.4787H150.8L149.9 84.8787H152.7L146.6 95.2787C145.3 97.4787 146.2 99.4787 148.7 99.4787C150.5 99.4787 152.4 98.1787 154.3 96.3787C154.3 100.179 159.6 100.879 162.9 96.8787H163.6C165.4 96.8787 168.2 95.7787 169.8 93.9787C169.6 93.5787 169.1 93.0787 168.7 92.9787L168.5 93.1787C167.1 94.6787 165.5 95.3787 163.9 95.3787L166.7 90.5787C168.5 87.4787 166.8 84.4787 164 84.4787C161.7 84.4787 159.9 85.3787 158.1 88.3787L156.6 90.9787L155.4 93.0787L155.2 93.2787C153 95.7787 150.9 97.7787 149.6 97.7787C148.9 97.7787 148.6 97.2787 149.3 96.1787L155.8 84.9787H158.3L159 83.4787H156.5L159.3 78.5787H156.3ZM163.8 86.3787C164.8 86.4787 165.2 87.6787 164.2 89.3787L162 93.0787H161.9C160.9 93.0787 160.1 93.8787 160.1 94.8787C160.1 95.2787 160.2 95.5787 160.4 95.8787V95.9787C159 98.3787 155.5 97.9787 157.3 94.8787L159.6 90.9787L161.1 88.5787C162 86.9787 163.1 86.3787 163.8 86.3787ZM185.8 78.5787L183 83.4787H180.3L179.4 84.8787H182.2L176 95.2787C174.7 97.4787 175.6 99.4787 178.1 99.4787C179.3 99.4787 180.6 98.8787 182 97.8787L181.2 99.1787H184.2L188.8 91.2787C193.4 85.4787 195.5 86.2787 194.2 88.4787L190.3 95.1787C189 97.3787 189.9 99.3787 192.4 99.3787C194.2 99.3787 196.2 97.9787 198.1 96.1787C198.2 98.0787 199.8 99.3787 202.2 99.3787C205.6 99.3787 209 96.7787 211.5 93.8787C211.3 93.4787 210.8 92.9787 210.4 92.8787L210.2 93.0787C208 95.5787 205.2 97.5787 203.1 97.5787C201.2 97.5787 200.1 96.4787 201.5 93.9787L201.8 93.4787C203.7 94.2787 207.4 93.8787 209.7 90.0787L210.1 89.3787C211.7 86.5787 210.2 84.5787 207.7 84.5787C205.3 84.5787 203.3 85.8787 202 87.9787L199.1 92.9787L198.9 93.1787C196.7 95.6787 194.6 97.6787 193.3 97.6787C192.6 97.6787 192.3 97.1787 192.9 96.0787L197.3 88.5787C198.6 86.2787 197.4 84.6787 195.7 84.6787C194.4 84.6787 193 85.3787 191.5 86.9787L196.3 78.6787H193.3L184.9 93.0787L184.7 93.2787C182.5 95.7787 180.4 97.7787 179.1 97.7787C178.4 97.7787 178.1 97.2787 178.8 96.1787L185.3 84.9787H187.8L188.7 83.5787H186.2L189 78.6787L185.8 78.5787ZM207.1 86.7787C208.1 86.6787 208.6 87.6787 207.6 89.3787L207.2 90.0787C205.8 92.4787 203.8 92.4787 202.7 92.0787L204.6 88.6787C205.3 87.4787 206.3 86.8787 207.1 86.7787ZM251.4 81.3787C249.7 82.8787 249.5 84.5787 250.6 85.9787L250.9 86.2787C249.6 88.1787 247.8 90.6787 245.8 92.9787L245.6 93.1787C244.2 94.6787 242.6 95.3787 241 95.3787L243.8 90.5787C245.6 87.4787 243.9 84.4787 241.1 84.4787C238.8 84.4787 237 85.3787 235.2 88.3787L233.7 90.9787L232.5 93.0787L232.3 93.2787C229.8 96.0787 227.7 97.9787 225.3 98.9787L232.1 87.5787H230.3C230.3 86.3787 229 84.6787 227.1 84.6787C225.5 84.6787 223.2 85.9787 221.9 88.0787L217.7 95.2787C216.4 97.4787 217.3 99.4787 219.8 99.4787C220.6 99.4787 221.7 99.0787 222.7 98.4787L221.9 99.8787C217.8 101.079 215.3 102.779 215.3 104.979C215.3 107.879 219.7 108.479 221.9 104.779L224.2 100.879C226.6 100.179 229 98.7787 231.4 96.3787C231.4 100.179 236.7 100.979 240 96.8787H240.7C242.5 96.8787 245.3 95.7787 246.9 93.9787C248.3 92.2787 249.5 90.7787 251.9 87.5787L252.3 88.0787C252.7 88.5787 252.8 89.1787 252.5 89.7787L249.3 95.2787C248 97.4787 248.9 99.4787 251.4 99.4787C252.9 99.4787 254.6 98.4787 256.2 97.0787C256.1 98.4787 257.1 99.4787 258.8 99.4787C259.6 99.4787 260.7 99.0787 261.7 98.4787L260.9 99.8787C256.8 101.079 254.3 102.779 254.3 104.979C254.3 107.879 258.7 108.479 260.9 104.779L263.2 100.879C265.7 100.079 268.1 98.6787 270.6 96.2787C270.7 98.1787 272.3 99.4787 274.7 99.4787C277.2 99.4787 279.6 98.0787 281.7 96.2787C281.6 100.179 287 100.979 290.3 96.8787H291C291.9 96.8787 293.2 96.5787 294.4 95.9787C293.6 98.0787 294.3 99.4787 296.1 99.4787C297.8 99.4787 299.6 97.9787 301.1 96.5787C300.8 98.1787 301.8 99.4787 303.7 99.4787C306.2 99.4787 309.1 96.8787 311.6 93.9787C313.3 91.9787 314.8 89.9787 315.9 88.5787C314.7 91.6787 315.3 97.2787 312.5 97.2787C311.5 97.2787 311.1 96.1787 311.1 96.1787L309.2 97.1787C309.2 97.1787 309.8 99.5787 312.5 99.5787C312.8 99.5787 313.1 99.5787 313.3 99.4787H313.4C316.5 99.0787 319.5 96.6787 321.8 94.0787C321.6 93.5787 321.1 93.1787 320.7 93.0787L320.5 93.2787C319.4 94.4787 318.2 95.5787 316.9 96.4787C317.9 93.6787 317.7 89.2787 319.5 85.4787L317.2 84.2787C316 85.9787 313.2 89.8787 310.5 92.9787L310.3 93.1787C308.1 95.6787 306 97.6787 304.7 97.6787C304 97.6787 303.7 97.1787 304.4 96.0787L310.8 84.8787H307.8L302.4 94.1787C300.1 96.2787 298.3 97.3787 297.8 97.1787C297 96.8787 297.8 95.7787 298.2 95.0787L304.1 84.8787H301.1L296.4 92.9787L296.2 93.1787C294.8 94.6787 293.2 95.3787 291.6 95.3787L294.4 90.5787C296.2 87.4787 294.5 84.4787 291.7 84.4787C289.4 84.4787 287.6 85.3787 285.8 88.3787L284.3 90.9787L283.1 93.0787L282.9 93.2787C280.7 95.7787 277.9 97.7787 275.8 97.7787C273.9 97.7787 272.8 96.6787 274.2 94.1787L274.5 93.6787C276.4 94.4787 280.1 94.0787 282.4 90.2787L282.8 89.5787C284.4 86.7787 282.9 84.7787 280.4 84.7787C278 84.7787 276 86.0787 274.7 88.1787L271.8 93.1787L271.6 93.3787C269.1 96.1787 267 98.0787 264.6 99.0787L271.4 87.6787H269.6C269.6 86.4787 268.3 84.7787 266.4 84.7787C264.8 84.7787 262.5 86.0787 261.2 88.1787L258.3 93.0787L258.1 93.2787C255.9 95.7787 253.8 97.7787 252.5 97.7787C251.8 97.7787 251.5 97.2787 252.2 96.1787L255.2 90.9787C256.2 89.1787 255.8 88.0787 254.8 86.9787L253.1 84.9787C252.7 84.4787 252.7 83.8787 253.3 83.2787L251.4 81.3787ZM241.1 86.3787C242.1 86.4787 242.6 87.6787 241.5 89.3787L239.3 93.0787H239.2C238.2 93.0787 237.4 93.8787 237.4 94.8787C237.4 95.2787 237.5 95.5787 237.7 95.8787V95.9787C236.3 98.3787 232.8 97.9787 234.6 94.8787L236.9 90.9787L238.4 88.5787C239.3 86.9787 240.3 86.3787 241.1 86.3787ZM291.3 86.3787C292.3 86.4787 292.8 87.6787 291.7 89.3787L289.5 93.0787H289.4C288.4 93.0787 287.6 93.8787 287.6 94.8787C287.6 95.2787 287.7 95.5787 287.9 95.8787V95.9787C286.5 98.3787 283 97.9787 284.8 94.8787L287.1 90.9787L288.6 88.5787C289.4 86.9787 290.5 86.3787 291.3 86.3787ZM279.6 86.7787C280.6 86.6787 281.1 87.6787 280.1 89.3787L279.7 90.0787C278.2 92.4787 276.3 92.4787 275.2 92.0787L277.1 88.6787C277.8 87.4787 278.8 86.8787 279.6 86.7787ZM227.2 86.9787C228.2 86.9787 228.9 87.8787 228 89.3787L225.7 93.3787C223.9 96.2787 222 97.6787 220.8 97.6787C220.1 97.6787 219.8 97.1787 220.5 96.0787L224.7 88.7787C225.4 87.5787 226.4 86.9787 227.2 86.9787ZM266.1 86.9787C267.1 86.9787 267.8 87.8787 266.9 89.3787L264.6 93.3787C262.8 96.2787 260.9 97.6787 259.7 97.6787C259 97.6787 258.7 97.1787 259.4 96.0787L263.6 88.7787C264.3 87.5787 265.3 86.9787 266.1 86.9787ZM220.8 101.879L219.4 104.279C218.8 105.379 217.7 105.179 217.7 104.379C217.7 103.679 218.5 102.779 220.8 101.879ZM259.7 101.879L258.3 104.279C257.7 105.379 256.6 105.179 256.6 104.379C256.7 103.679 257.4 102.779 259.7 101.879ZM105 90.2787H133.9V92.1787H105V90.2787ZM332.1 90.2787H361V92.1787H332.1V90.2787Z" fill="#766458"/>
<path d="M385.05 216.056L410.45 142.056H435.65L461.35 216.056H441.15L437.45 202.656H408.85L405.05 216.056H385.05ZM420.75 163.956L413.25 188.456H433.35L425.85 163.956C425.45 162.756 425.05 161.556 424.65 160.356C424.35 159.056 424.05 157.856 423.85 156.556C423.65 156.056 423.55 155.656 423.55 155.256C423.45 154.756 423.35 154.356 423.35 153.956C423.25 154.356 423.15 154.756 423.05 155.256C422.95 155.656 422.85 156.056 422.85 156.556C422.75 156.756 422.75 156.856 422.75 157.056C422.75 157.156 422.75 157.256 422.65 157.356C422.45 158.456 422.15 159.656 421.85 160.756C421.35 161.756 421.05 162.856 420.75 163.956ZM303.05 216.056V142.056H322.55L350.45 180.056C351.15 181.156 351.85 182.356 352.45 183.556C353.15 184.756 353.85 185.956 354.45 187.156L355.85 190.156C356.35 191.156 356.75 192.156 357.25 193.056C357.15 192.256 357.05 191.456 356.95 190.656C356.85 189.856 356.75 189.056 356.75 188.256C356.55 186.656 356.45 185.056 356.45 183.456C356.35 181.756 356.35 180.156 356.35 178.456V142.156H375.75V216.156H356.35L328.25 177.956C327.45 177.056 326.75 175.956 326.05 174.656C325.35 173.356 324.65 171.956 324.05 170.556C323.65 169.556 323.15 168.656 322.65 167.656C322.25 166.756 321.95 165.756 321.45 164.856C321.85 167.256 322.15 169.656 322.35 172.156C322.55 174.656 322.65 177.156 322.65 179.556V216.056H303.05ZM215.05 161.156C218.65 154.556 223.55 149.556 229.95 146.056C236.35 142.556 242.95 140.856 249.85 140.856C250.75 140.856 251.75 140.856 252.65 140.956C253.65 141.056 254.65 141.156 255.55 141.156C258.45 141.556 261.25 142.256 264.05 143.256C266.95 144.256 269.65 145.556 272.15 147.156C277.65 150.756 281.95 155.456 284.95 161.456C287.95 167.356 289.45 173.456 289.45 179.956C289.45 180.756 289.45 181.556 289.35 182.356C289.35 183.156 289.25 183.856 289.15 184.656C288.95 186.356 288.65 187.956 288.25 189.556C287.85 191.156 287.35 192.656 286.75 194.156C283.45 201.656 278.45 207.556 271.55 211.656C264.65 215.756 257.45 217.856 249.85 217.856C249.35 217.856 248.75 217.856 248.25 217.756H246.75C244.05 217.556 241.45 217.056 238.85 216.356C236.25 215.656 233.75 214.656 231.45 213.456C224.95 210.056 219.85 205.256 216.15 198.956C212.45 192.656 210.55 186.056 210.55 179.256C210.55 178.256 210.55 177.256 210.65 176.256C210.75 175.256 210.85 174.156 211.15 173.156C211.55 171.156 212.05 169.056 212.75 167.156C213.15 164.956 214.05 163.056 215.05 161.156ZM267.85 187.756C268.05 186.956 268.25 186.156 268.45 185.356C268.65 184.456 268.85 183.656 268.95 182.756C269.05 182.256 269.05 181.656 269.05 181.156C269.15 180.656 269.15 180.156 269.15 179.656C269.15 179.156 269.15 178.756 269.05 178.256V176.856C268.65 173.556 267.65 170.356 266.05 167.256C264.45 164.156 262.15 161.756 259.35 160.056C258.55 159.656 257.85 159.356 257.05 159.056C256.25 158.756 255.55 158.456 254.75 158.256C253.95 158.056 253.25 157.956 252.45 157.956C251.65 157.756 250.95 157.756 250.15 157.756C246.25 157.756 242.55 158.956 239.25 161.456C235.95 163.956 233.55 167.256 232.25 171.356L232.05 171.856V172.356C231.85 173.056 231.65 173.856 231.45 174.556C231.25 175.256 231.15 175.956 230.95 176.756L230.75 178.356V180.756C230.75 180.956 230.75 181.256 230.85 181.556C231.05 185.656 232.35 189.556 234.55 193.256C236.85 196.856 240.05 199.256 244.05 200.456L245.45 200.956C245.95 201.056 246.45 201.156 246.95 201.156L248.35 201.356H249.75C253.85 201.356 257.55 200.156 260.75 197.756C264.05 195.156 266.45 191.856 267.85 187.756ZM185.75 209.156C182.15 211.656 178.15 213.356 173.95 214.256C169.75 215.156 165.35 215.756 161.05 215.956C159.85 216.056 158.55 216.056 157.35 216.056H133.55V142.056H158.65C159.85 142.056 161.05 142.056 162.25 142.156C166.45 142.356 170.55 142.956 174.55 143.856C178.65 144.756 182.45 146.556 185.85 148.956C190.15 151.956 193.55 155.956 195.95 160.956C198.35 165.956 199.75 171.056 200.05 176.256C200.15 176.756 200.15 177.156 200.15 177.656V180.556C199.95 186.056 198.65 191.356 196.25 196.456C193.85 201.556 190.25 205.856 185.75 209.156ZM153.35 199.456C153.55 199.456 153.85 199.456 154.05 199.556H154.85C155.15 199.556 155.45 199.556 155.65 199.656H158.75C159.65 199.556 160.45 199.456 161.15 199.456C163.15 199.256 165.15 198.956 167.05 198.456C168.95 197.956 170.75 197.056 172.25 196.056C174.75 194.256 176.55 191.856 177.75 188.856C178.95 185.756 179.65 182.556 179.65 179.256V178.356C179.65 178.056 179.65 177.756 179.55 177.456C179.35 174.556 178.65 171.656 177.45 168.956C176.25 166.156 174.55 163.956 172.35 162.356C170.75 161.056 168.85 160.156 166.85 159.656C164.85 159.156 162.85 158.956 160.85 158.856H153.35V199.456ZM73.45 216.056V142.056H118.85V158.156H93.25V171.156H117.25V186.956H93.25V199.456H118.75V216.056H73.45ZM14.05 192.256C14.15 192.356 14.15 192.456 14.15 192.456C14.25 192.456 14.35 192.456 14.35 192.556C16.45 194.856 18.85 197.056 21.45 199.056C24.05 200.956 27.15 202.056 30.55 202.156C30.65 202.156 30.75 202.156 30.75 202.256H31.05C31.15 202.256 31.25 202.256 31.25 202.356H32.55C32.95 202.256 33.25 202.156 33.55 202.156C34.75 201.956 35.95 201.456 37.05 200.756C38.25 200.056 39.15 199.256 39.75 198.156L39.95 197.656L40.15 197.156C40.35 196.656 40.45 196.156 40.45 195.656C40.55 195.156 40.55 194.756 40.55 194.356C40.55 192.256 39.65 190.556 37.75 189.156C36.05 187.756 34.05 186.556 31.95 185.756C31.15 185.456 30.35 185.256 29.55 185.056C28.85 184.856 28.05 184.656 27.35 184.456H27.15C27.05 184.356 26.95 184.356 26.95 184.356C23.15 183.456 19.55 181.956 16.25 179.956C12.95 177.856 10.65 174.856 9.35002 171.056C9.15002 170.256 8.85002 169.456 8.65002 168.656C8.45002 167.756 8.35002 166.856 8.35002 165.956C8.35002 165.856 8.35002 165.556 8.35002 165.356V162.556C8.45002 161.956 8.55002 161.356 8.65002 160.656C8.85002 159.056 9.25002 157.556 9.85002 156.056C10.35 154.556 11.05 153.156 11.95 151.856C14.45 147.756 17.65 144.856 21.45 143.056C25.35 141.256 29.55 140.356 33.75 140.356C34.75 140.356 35.75 140.456 36.75 140.556C37.85 140.656 38.95 140.756 40.05 140.856C42.85 141.356 45.65 142.156 48.25 143.156C51.05 144.256 53.55 145.556 55.95 146.956L49.55 161.256C47.45 159.756 45.25 158.356 42.95 157.156C40.65 155.956 38.15 155.456 35.45 155.456H34.55C32.75 155.656 31.15 156.456 29.55 157.856C28.05 159.156 27.25 160.556 27.25 162.156V162.856C27.35 163.056 27.45 163.356 27.55 163.556C27.75 164.056 27.95 164.556 28.35 165.056C28.75 165.556 29.15 165.956 29.65 166.356C30.55 167.056 31.75 167.756 33.35 168.356C34.95 168.856 36.65 169.456 38.45 169.956C39.95 170.356 41.35 170.756 42.75 171.156C44.15 171.456 45.35 171.756 46.25 172.056C50.55 173.556 53.85 176.156 56.05 179.856C58.25 183.456 59.35 187.256 59.45 191.256V191.856C59.45 192.356 59.45 192.756 59.35 193.256V194.556C58.85 198.556 57.55 202.456 55.45 206.056C53.35 209.656 50.55 212.456 46.95 214.456C45.65 215.056 44.25 215.656 42.85 216.056C41.45 216.456 40.05 216.756 38.65 217.056C37.55 217.256 36.35 217.456 35.15 217.556C34.05 217.756 32.95 217.756 31.75 217.756H30.35C25.75 217.556 21.15 216.556 16.65 214.756C12.15 212.856 8.15002 210.256 4.65002 207.056L14.05 192.256ZM355.65 339.356C355.65 339.056 355.75 338.756 355.85 338.456C355.95 338.156 356.15 337.856 356.35 337.656C356.55 337.456 356.85 337.256 357.15 337.056C357.45 336.956 357.85 336.856 358.25 336.856C358.75 336.856 359.15 336.956 359.55 337.156C359.95 337.356 360.35 337.556 360.65 337.856C360.85 338.156 361.05 338.456 361.25 338.856C361.35 339.256 361.45 339.656 361.45 340.156C361.45 341.056 361.25 341.756 360.95 342.556C360.65 343.256 360.25 343.956 359.65 344.456C359.35 344.756 359.15 344.956 358.85 345.156C358.55 345.356 358.25 345.556 357.95 345.656C357.65 345.756 357.45 345.956 357.25 346.056C357.15 346.156 357.05 346.156 356.85 346.256L355.45 344.256C355.65 344.156 355.95 344.056 356.25 343.856C356.55 343.756 356.85 343.556 357.15 343.356C357.45 343.156 357.65 342.856 357.85 342.556C358.05 342.256 358.15 341.956 358.15 341.556C357.55 341.556 356.95 341.356 356.45 340.956C355.85 340.656 355.65 340.156 355.65 339.356ZM363.45 339.356C363.45 339.056 363.55 338.756 363.65 338.456C363.75 338.156 363.95 337.856 364.15 337.656C364.35 337.456 364.65 337.256 364.95 337.056C365.25 336.956 365.65 336.856 366.05 336.856C366.55 336.856 366.95 336.956 367.35 337.156C367.75 337.356 368.15 337.556 368.45 337.856C368.65 338.156 368.85 338.456 369.05 338.856C369.15 339.256 369.25 339.656 369.25 340.156C369.25 340.956 369.15 341.756 368.75 342.556C368.45 343.256 368.05 343.956 367.45 344.456C367.15 344.756 366.95 344.956 366.65 345.156C366.35 345.356 366.05 345.556 365.75 345.656C365.45 345.756 365.25 345.956 365.05 346.056C364.95 346.156 364.85 346.156 364.65 346.256L363.35 344.256C363.55 344.156 363.85 344.056 364.15 343.856C364.45 343.756 364.75 343.556 365.05 343.356C365.35 343.156 365.55 342.856 365.75 342.556C365.95 342.256 366.05 341.956 366.05 341.556C365.45 341.556 364.85 341.356 364.35 340.956C363.65 340.656 363.45 340.156 363.45 339.356ZM98.85 280.656C98.85 280.956 98.75 281.256 98.65 281.556C98.55 281.856 98.35 282.156 98.15 282.356C97.65 282.856 96.95 283.156 96.25 283.156C95.85 283.156 95.35 283.056 94.95 282.856C94.55 282.656 94.15 282.456 93.85 282.156C93.55 281.856 93.35 281.456 93.25 281.156C93.15 280.756 93.05 280.356 93.05 279.856C93.05 278.956 93.25 278.256 93.55 277.456C93.85 276.756 94.25 276.056 94.85 275.556C95.15 275.256 95.35 275.056 95.65 274.856C95.95 274.656 96.25 274.456 96.55 274.356C96.85 274.256 97.05 274.056 97.25 273.956C97.45 273.856 97.55 273.856 97.65 273.756L98.95 275.756C98.65 275.856 98.35 275.956 98.15 276.156C97.85 276.256 97.55 276.456 97.25 276.656C96.95 276.856 96.75 277.156 96.55 277.456C96.35 277.756 96.25 278.056 96.25 278.456C96.95 278.456 97.45 278.656 97.95 279.056C98.65 279.456 98.85 279.956 98.85 280.656ZM91.05 280.656C91.05 281.256 90.85 281.856 90.35 282.356C90.15 282.556 89.85 282.756 89.55 282.956C89.25 283.056 88.85 283.156 88.45 283.156C88.05 283.156 87.55 283.056 87.15 282.856C86.75 282.656 86.35 282.456 86.05 282.156C85.75 281.856 85.55 281.456 85.45 281.156C85.35 280.756 85.25 280.356 85.25 279.856C85.25 278.956 85.45 278.256 85.75 277.456C86.05 276.756 86.45 276.056 87.05 275.556C87.25 275.356 87.55 275.056 87.85 274.856C88.15 274.656 88.45 274.456 88.75 274.356C89.05 274.256 89.25 274.056 89.45 273.956C89.65 273.856 89.75 273.856 89.85 273.756L91.15 275.756C90.95 275.856 90.65 275.956 90.35 276.156C90.05 276.256 89.75 276.456 89.45 276.656C89.15 276.856 88.95 277.156 88.75 277.456C88.55 277.756 88.45 278.056 88.45 278.456C89.15 278.456 89.65 278.656 90.15 279.056C90.75 279.456 91.05 279.956 91.05 280.656ZM336.35 337.556H340.15L351.95 316.956H348.15L336.35 337.556ZM336.25 339.056C335.05 339.056 334.05 340.056 334.05 341.256C334.05 342.456 334.95 343.456 336.25 343.456C337.45 343.456 338.45 342.556 338.45 341.256C338.45 339.956 337.45 339.056 336.25 339.056ZM309.85 333.556L310.95 331.656C315.35 325.556 318.25 327.256 316.95 329.556L315.15 332.656C314.05 334.556 310.65 335.956 309.85 333.556ZM334.95 336.456C334.75 335.856 334.05 335.256 333.55 335.156L333.25 335.456C331.95 337.056 330.35 338.356 328.75 339.556C329.95 335.956 329.65 330.456 332.05 325.556L329.25 324.056C327.65 326.156 324.25 331.156 320.85 335.156L320.55 335.456C317.85 338.656 315.15 341.156 313.55 341.156C312.75 341.156 311.95 340.356 311.95 338.656V337.056C314.65 337.356 317.45 335.656 319.15 332.556L320.15 330.856C323.65 324.856 317.95 322.856 314.05 326.356L319.45 317.056H315.65L304.85 335.756C304.65 335.556 304.45 335.456 304.15 335.256L303.85 335.556C301.15 338.756 297.65 341.256 294.95 341.256C292.65 341.256 291.25 339.756 292.95 336.756L296.85 329.956C299.05 326.256 302.85 326.856 300.65 330.756L300.15 331.656H303.25L303.75 330.756C305.75 327.256 303.85 324.656 300.75 324.656C297.65 324.656 295.25 326.256 293.65 329.056L289.95 335.456C289.85 335.456 289.75 335.356 289.75 335.356L289.45 335.656C286.75 338.856 284.05 341.356 282.45 341.356C281.65 341.356 281.15 340.756 282.05 339.256L290.15 325.156H286.35L279.65 336.856C276.75 339.456 274.55 340.956 273.85 340.556C272.95 340.156 273.85 338.756 274.35 337.956L281.75 325.056H277.95L270.65 337.756C269.85 338.456 268.25 339.156 267.45 339.656C268.65 336.056 268.35 330.556 270.75 325.656L267.95 324.156C266.35 326.256 257.65 337.856 254.25 341.856C254.55 342.356 255.15 342.756 255.65 343.156C257.75 340.656 264.95 331.456 266.35 329.656C264.85 333.556 265.65 340.656 262.05 340.656C260.75 340.656 260.25 339.256 260.25 339.256L257.85 340.456C257.85 340.456 258.55 343.456 261.95 343.456C262.35 343.456 262.65 343.456 263.05 343.356H263.15C265.05 343.056 267.75 342.256 269.55 340.956C269.55 342.456 270.45 343.456 272.05 343.456C274.15 343.456 276.45 341.556 278.25 339.856C277.85 341.856 279.05 343.456 281.45 343.456C283.75 343.456 286.45 341.556 288.85 339.056C288.85 341.556 290.85 343.456 293.95 343.456C297.05 343.456 300.05 341.756 302.65 339.456L300.55 343.156H304.35L308.65 335.656V338.656C308.65 341.856 309.25 343.556 312.35 343.556C315.45 343.556 319.05 340.256 322.15 336.556C324.25 334.056 326.15 331.456 327.55 329.656C326.05 333.556 326.85 340.656 323.25 340.656C321.95 340.656 321.45 339.256 321.45 339.256L319.05 340.456C319.05 340.456 319.75 343.456 323.15 343.456C323.55 343.456 323.85 343.456 324.25 343.356H324.35C328.35 342.856 332.15 339.756 334.95 336.456ZM220.35 335.356H220.15C218.95 335.356 217.95 336.356 217.95 337.656C217.95 338.156 218.05 338.556 218.35 338.956V339.056C216.55 342.056 212.25 341.556 214.45 337.556L217.35 332.556L219.15 329.456C221.85 324.956 225.45 326.756 223.15 330.656L220.35 335.356ZM194.95 349.556C194.15 350.956 192.85 350.756 192.85 349.756C192.85 348.756 193.75 347.656 196.65 346.556L194.95 349.556ZM166.15 335.756C163.85 339.356 161.65 341.056 160.05 341.056C159.25 341.056 158.75 340.456 159.65 338.956L164.95 329.756C166.95 326.256 171.05 327.156 169.15 330.556L166.15 335.756ZM154.15 321.056C155.25 319.156 156.55 318.256 157.55 318.256C158.95 318.256 159.65 319.156 159.65 320.556C159.65 324.056 155.25 331.356 149.45 330.456H148.65L154.15 321.056ZM246.95 335.156L246.65 335.456C243.95 338.656 241.25 341.156 239.65 341.156C238.85 341.156 238.35 340.556 239.25 339.056L244.65 329.456C246.25 326.556 244.75 324.556 242.65 324.556C241.05 324.556 239.35 325.456 237.45 327.356L238.85 324.856H235.05L228.95 335.356C228.75 335.256 228.65 335.156 228.45 335.056L228.15 335.356C226.45 337.256 224.35 338.156 222.45 338.156L226.05 332.056C228.35 328.056 226.25 324.356 222.65 324.356C219.75 324.356 217.45 325.556 215.35 329.256L213.45 332.456L211.85 335.256C211.75 335.156 211.65 335.156 211.55 335.056L211.25 335.356C208.15 338.956 205.45 341.256 202.45 342.556L212.85 324.856H209.05L202.35 336.456C199.45 339.156 197.15 340.656 196.45 340.356C195.55 339.956 196.45 338.556 196.95 337.756L204.35 324.856H200.55L194.55 335.256C194.45 335.156 194.35 335.156 194.25 335.056L193.95 335.356C191.25 338.556 188.55 341.056 186.95 341.056C186.15 341.056 185.65 340.456 186.55 338.956L191.95 329.356C193.55 326.456 192.05 324.456 189.95 324.456C188.35 324.456 186.65 325.356 184.75 327.256L186.15 324.756H182.35L176.35 335.156C176.25 335.056 176.15 335.056 175.95 334.956L175.65 335.256C172.95 338.456 170.25 340.956 168.65 340.956C167.85 340.956 167.35 340.356 168.25 338.856L174.35 328.156H172.25C172.35 326.556 170.75 324.356 168.25 324.356C166.25 324.356 163.35 325.956 161.75 328.756L157.85 335.456C157.55 335.256 157.25 335.056 157.05 334.956L156.75 335.256C154.05 338.456 151.95 340.956 148.15 340.956C145.55 340.956 144.05 338.356 146.25 334.556L147.35 332.656C148.05 332.756 148.75 332.856 149.45 332.856C153.45 332.856 158.05 330.756 161.05 325.556C162.15 323.656 162.55 321.956 162.55 320.456C162.55 317.056 160.35 314.856 157.55 314.856C155.45 314.856 153.05 316.356 151.35 319.256L145.45 329.356C143.25 328.156 142.05 326.056 142.05 323.956C142.05 322.256 142.85 320.456 144.45 319.156L143.25 316.956C140.55 318.856 139.35 321.456 139.35 323.956C139.35 326.956 141.05 329.856 144.15 331.456L143.05 333.456C140.35 338.056 141.95 343.156 147.25 343.156C151.45 343.156 153.35 341.256 155.95 338.756C155.15 341.156 156.35 343.156 158.95 343.156C160.45 343.156 162.35 342.156 164.15 340.656C164.35 342.156 165.45 343.156 167.45 343.156C169.25 343.156 171.25 342.056 173.15 340.356L171.75 342.756H175.55L181.35 332.656C187.15 325.456 189.75 326.356 188.05 329.156L183.15 337.656C181.55 340.456 182.65 343.056 185.75 343.056C187.75 343.056 190.05 341.656 192.15 339.656C191.65 341.756 192.65 343.056 194.55 343.056C196.35 343.056 198.45 341.556 200.15 340.056L198.05 343.656C192.95 345.156 189.75 347.256 189.75 350.156C189.75 353.756 195.35 354.556 198.05 349.856L200.95 344.856C204.15 343.856 207.25 341.856 210.45 338.656C209.95 343.956 216.95 345.156 221.15 339.756H221.95C223.35 339.756 225.15 339.256 226.85 338.256L224.35 342.656H228.15L233.95 332.556C239.75 325.356 242.35 326.256 240.65 329.056L235.75 337.556C234.15 340.356 235.25 342.956 238.35 342.956C241.45 342.956 245.05 339.656 248.15 335.956C248.05 335.956 247.45 335.356 246.95 335.156ZM365.55 299.556C363.25 303.256 360.95 305.056 359.35 305.056C358.55 305.056 358.05 304.456 358.95 302.956L364.25 293.756C366.25 290.256 370.35 291.156 368.45 294.556L365.55 299.556ZM329.35 299.756C327.05 303.356 324.85 305.056 323.25 305.056C322.45 305.056 321.95 304.456 322.85 302.956L328.15 293.756C330.15 290.256 334.25 291.156 332.35 294.556L329.35 299.756ZM289.45 313.556C288.65 314.956 287.35 314.756 287.35 313.756C287.35 312.756 288.25 311.656 291.15 310.556L289.45 313.556ZM297.45 285.056C298.55 283.156 299.85 282.256 300.85 282.256C306.85 282.256 302.35 296.656 292.75 294.456H291.95L297.45 285.056ZM375.15 299.156L374.85 299.456C372.15 302.656 369.45 305.156 367.85 305.156C367.05 305.156 366.55 304.556 367.45 303.056L380.25 280.956H376.45L370.85 290.556C370.15 289.456 368.95 288.556 367.35 288.556C365.35 288.556 362.45 290.156 360.85 292.956L357.15 299.356C357.05 299.356 356.95 299.256 356.95 299.256L356.65 299.556C353.95 302.756 351.65 305.256 349.95 305.256C349.15 305.256 348.65 304.656 349.55 303.156L355.05 293.556C356.65 290.656 355.15 288.656 353.05 288.656C351.45 288.656 349.75 289.556 347.85 291.456L349.25 288.956H345.45L339.45 299.356C339.35 299.256 339.25 299.256 339.05 299.156L338.75 299.456C336.05 302.656 333.35 305.156 331.75 305.156C330.95 305.156 330.45 304.556 331.35 303.056L337.45 292.356H335.35C335.45 290.756 333.85 288.556 331.35 288.556C329.35 288.556 326.45 290.156 324.85 292.956L321.15 299.256L320.95 299.456C318.25 302.656 315.15 305.156 313.55 305.156C312.75 305.156 312.25 304.556 313.15 303.056L316.95 296.456C318.25 294.156 317.65 292.856 316.45 291.356L314.35 288.856C313.85 288.156 313.85 287.356 314.55 286.656L312.55 284.556C310.45 286.456 310.25 288.656 311.55 290.356L311.85 290.756C310.15 293.156 307.95 296.356 305.45 299.256C305.55 299.356 305.65 299.456 305.75 299.556C302.65 303.156 299.95 305.456 297.05 306.756L301.85 298.556H298.05L297.65 299.256C295.65 302.756 293.35 305.256 290.45 305.256C287.85 305.256 287.45 302.656 289.65 298.856L290.75 296.956C291.45 297.056 292.15 297.156 292.85 297.156C306.25 297.156 312.75 279.156 300.95 279.156C298.85 279.156 296.45 280.656 294.75 283.556L288.85 293.656C286.65 292.456 285.45 290.356 285.45 288.256C285.45 286.556 286.25 284.756 287.85 283.456L286.65 281.256C283.95 283.156 282.75 285.756 282.75 288.256C282.75 291.256 284.45 294.156 287.55 295.756L286.45 297.756C283.75 302.356 284.25 307.456 289.65 307.456C291.25 307.456 292.55 306.956 293.75 306.256L292.75 307.956C287.65 309.556 284.45 311.556 284.45 314.456C284.45 318.056 290.05 318.856 292.75 314.156L295.65 309.156C299.55 307.956 303.45 305.256 307.55 300.456C307.45 300.356 307.45 300.256 307.35 300.056C309.05 298.056 310.45 296.156 313.35 292.356L313.85 292.956C314.35 293.556 314.55 294.356 314.05 295.056L310.05 301.956C308.45 304.756 309.55 307.356 312.65 307.356C314.55 307.356 316.95 306.156 319.05 304.356C319.05 306.056 320.15 307.356 322.35 307.356C323.85 307.356 325.75 306.356 327.55 304.856C327.75 306.356 328.85 307.356 330.85 307.356C332.65 307.356 334.65 306.256 336.55 304.556L335.15 306.956H338.95L344.75 296.856C350.55 289.656 353.15 290.556 351.45 293.356L346.55 301.856C344.95 304.656 346.05 307.256 349.15 307.256C351.15 307.256 352.95 305.856 355.15 303.956C354.95 305.856 356.15 307.256 358.45 307.256C359.95 307.256 361.85 306.256 363.65 304.756C363.85 306.256 364.95 307.256 366.95 307.256C370.05 307.256 373.65 303.956 376.75 300.256C376.25 299.956 375.65 299.356 375.15 299.156ZM262.85 293.856C265.05 290.156 268.85 290.756 266.65 294.656L266.15 295.556C264.35 298.656 261.85 298.556 260.45 298.056L262.85 293.856ZM259.85 307.456C264.15 307.456 268.35 304.156 271.55 300.456C271.25 299.956 270.65 299.356 270.15 299.156L269.85 299.456C267.15 302.656 263.65 305.156 260.95 305.156C258.65 305.156 257.25 303.656 258.95 300.656L259.35 299.956C261.75 300.956 266.35 300.456 269.15 295.556L269.65 294.656C271.65 291.156 269.75 288.556 266.65 288.556C263.65 288.556 261.15 290.156 259.55 292.956L255.85 299.256C255.85 299.256 255.75 299.256 255.75 299.156L255.45 299.456C252.75 302.656 250.05 305.156 248.45 305.156C247.65 305.156 247.15 304.556 248.05 303.056L253.45 293.456C255.05 290.556 253.55 288.556 251.45 288.556C249.85 288.556 248.05 289.456 246.15 291.456L252.15 280.956H248.35L237.65 299.456C237.55 299.356 237.35 299.256 237.25 299.156L236.95 299.456C234.25 302.656 231.55 305.156 229.95 305.156C229.15 305.156 228.65 304.556 229.55 303.056L237.65 288.956H240.75L241.85 287.156H238.75L242.35 280.956H238.55L234.95 287.156H231.55L230.45 288.956H233.85L226.25 302.156C224.65 304.956 225.75 307.556 228.85 307.556C230.75 307.556 232.75 306.356 234.75 304.556L233.25 307.156H237.05L242.75 297.156C248.55 289.856 251.15 290.756 249.55 293.556L244.65 302.056C243.05 304.856 244.15 307.456 247.25 307.456C249.55 307.456 252.05 305.656 254.55 303.256C254.75 305.656 256.75 307.456 259.85 307.456ZM132.35 293.856C134.55 290.156 138.35 290.756 136.15 294.656L135.65 295.556C133.85 298.656 131.35 298.556 129.95 298.056L132.35 293.856ZM155.45 303.056L160.75 293.856C162.75 290.356 166.85 291.256 164.95 294.656L162.05 299.856C159.75 303.456 157.55 305.156 155.95 305.156C155.05 305.056 154.55 304.556 155.45 303.056ZM209.45 293.856C211.65 290.156 215.45 290.756 213.25 294.656L212.75 295.556C210.95 298.656 208.55 298.556 207.05 298.056L209.45 293.856ZM151.65 303.356C151.05 305.556 152.25 307.456 154.75 307.456C156.25 307.456 158.15 306.456 159.95 304.956C160.15 306.456 161.25 307.456 163.25 307.456C165.25 307.456 167.45 306.056 169.65 304.156C169.25 306.156 170.15 307.456 172.05 307.456C174.15 307.456 176.45 305.556 178.25 303.856C177.85 305.856 179.05 307.456 181.45 307.456C184.55 307.456 188.15 304.156 191.25 300.456C191.25 300.456 191.15 300.356 191.15 300.256C193.25 297.856 195.05 295.256 196.35 293.456C194.85 297.356 195.65 304.456 192.05 304.456C190.75 304.456 190.25 303.056 190.25 303.056L187.85 304.256C187.85 304.256 188.55 307.356 191.95 307.356C192.35 307.356 192.65 307.356 193.05 307.256H193.15C195.95 306.856 198.65 305.156 201.05 303.056C201.15 305.556 203.05 307.356 206.15 307.356C210.45 307.356 214.65 304.056 217.85 300.356C217.55 299.856 216.95 299.256 216.45 299.056L216.15 299.356C213.45 302.556 209.95 305.056 207.25 305.056C204.95 305.056 203.55 303.556 205.25 300.556L205.65 299.856C208.05 300.856 212.65 300.356 215.45 295.456L215.95 294.556C217.95 291.056 216.05 288.456 212.95 288.456C209.85 288.456 207.45 290.056 205.85 292.856L202.15 299.156H202.05L201.75 299.456C200.45 301.056 198.85 302.356 197.25 303.556C198.45 299.956 198.15 294.456 200.55 289.556L197.75 288.056C196.15 290.156 192.75 295.156 189.35 299.156L189.45 299.256L189.35 299.456C186.65 302.656 183.95 305.156 182.35 305.156C181.55 305.156 181.05 304.556 181.95 303.056L190.05 288.956H186.25L179.55 300.656C176.65 303.256 174.45 304.756 173.75 304.356C172.85 303.956 173.75 302.556 174.25 301.756L181.65 288.856H177.85L171.85 299.256C171.75 299.156 171.65 299.156 171.55 299.056L171.25 299.356C168.55 302.556 165.85 305.056 164.25 305.056C163.45 305.056 162.95 304.456 163.85 302.956L169.95 292.256H167.85C167.95 290.656 166.35 288.456 163.85 288.456C161.85 288.456 158.95 290.056 157.35 292.856L153.55 299.456C153.35 299.356 153.15 299.156 152.95 299.056L152.65 299.356C149.95 302.556 146.75 305.056 144.15 305.056C141.85 305.056 140.45 303.556 142.15 300.556L146.05 293.756C148.25 290.056 152.05 290.656 149.85 294.556L149.35 295.456H152.45L152.95 294.556C154.95 291.056 153.05 288.456 149.95 288.456C146.85 288.456 144.85 290.056 143.25 292.856L139.45 299.256C139.35 299.156 139.25 299.156 139.15 299.056L138.85 299.356C136.15 302.556 132.95 305.056 130.25 305.056C127.95 305.056 126.55 303.556 128.25 300.556L128.65 299.856C131.05 300.856 135.65 300.356 138.45 295.456L138.95 294.556C140.95 291.056 139.05 288.456 135.95 288.456C132.85 288.456 130.45 290.056 128.85 292.856L124.85 299.656C122.45 303.656 124.55 307.356 128.95 307.356C132.25 307.356 134.95 305.356 137.75 302.756C137.65 305.356 139.65 307.356 142.85 307.356C146.25 307.456 148.95 305.656 151.65 303.356ZM114.75 289.356L117.85 284.156C120.65 279.356 124.15 282.156 122.25 285.756C120.75 288.456 118.65 289.356 114.75 289.356ZM110.65 306.656C108.35 306.656 106.65 306.156 105.25 305.356C105.95 304.556 106.55 303.656 107.15 302.656L113.55 291.656L114.55 291.756C123.35 293.556 119.85 306.656 110.65 306.656ZM120.05 291.156C127.65 288.556 128.25 279.056 120.75 279.056C118.65 279.056 116.25 280.556 114.55 283.456L104.35 301.056C103.95 301.856 103.45 302.556 102.85 303.156C100.25 299.556 100.95 294.156 104.65 291.856L103.15 289.956C95.25 294.956 97.55 309.556 110.75 309.556C122.05 309.556 127.25 295.956 120.05 291.156Z" fill="white"/>
</g>
<defs>
<filter id="filter0_d_33515_805" x="0.650024" y="0.878708" width="464.7" height="360.243" filterUnits="userSpaceOnUse" color-interpolation-filters="sRGB">
<feFlood flood-opacity="0" result="BackgroundImageFix"/>
<feColorMatrix in="SourceAlpha" type="matrix" values="0 0 0 0 0 0 0 0 0 0 0 0 0 0 0 0 0 0 127 0" result="hardAlpha"/>
<feOffset dy="4"/>
<feGaussianBlur stdDeviation="2"/>
<feComposite in2="hardAlpha" operator="out"/>
<feColorMatrix type="matrix" values="0 0 0 0 0 0 0 0 0 0 0 0 0 0 0 0 0 0 0.25 0"/>
<feBlend mode="normal" in2="BackgroundImageFix" result="effect1_dropShadow_33515_805"/>
<feBlend mode="normal" in="SourceGraphic" in2="effect1_dropShadow_33515_805" result="shape"/>
</filter>
<clipPath id="clip0_33515_805">
<rect width="456.7" height="352.243" fill="white" transform="translate(4.65002 0.878708)"/>
</clipPath>
</defs>
</svg>
